<svg width="393" height="397" viewBox="0 0 393 397" fill="none" xmlns="http://www.w3.org/2000/svg">
<path d="M0.074249 397V396.407C-0.0247497 265.656 -0.0247497 132.432 0.074249 0.593425V0L0.668243 0.0989061C69.5713 10.286 137.979 16.6158 201.636 21.9567C228.959 24.2314 259.946 26.9018 290.338 33.6273C301.228 36.001 312.217 38.7703 322.81 41.4407C345.481 47.0782 368.844 52.9136 392.604 55.8807L393 55.9796V56.3752C393 150.729 393 246.369 393 340.724V341.119L392.604 341.218C363.597 345.768 333.997 348.339 305.485 350.713C271.43 353.581 236.186 356.647 201.735 363.076C137.88 375.043 69.3733 387.406 0.767241 396.901L0.074249 397ZM1.06424 1.18685C0.965237 132.729 0.965237 265.458 1.06424 395.912C69.5713 386.516 137.88 374.153 201.438 362.186C235.988 355.658 271.232 352.691 305.287 349.823C333.7 347.449 363.102 344.878 391.911 340.427C391.911 246.369 391.911 151.026 391.911 56.8697C368.25 53.9026 344.986 48.0673 322.414 42.5286C311.821 39.8582 300.832 37.1878 289.942 34.7152C259.649 27.9898 228.662 25.4183 201.339 23.1435C137.979 17.6049 69.7693 11.275 1.06424 1.18685Z" fill="#D1EF53" fill-opacity="0.3"/>
<path d="M392.406 75.7603C367.359 72.3976 343.6 64.3864 320.731 56.573C312.712 53.8037 304.396 51.0344 296.08 48.364C270.836 40.4517 243.809 36.001 210.941 34.4185C184.806 33.1328 158.373 33.4295 132.732 33.6273C89.3711 34.0229 44.4257 34.4185 0.470245 27.4953L0.668243 26.5062C44.6237 33.4295 89.4701 33.0339 132.831 32.6383C158.472 32.4405 185.004 32.1437 211.139 33.4295C244.007 35.012 271.133 39.4626 296.476 47.4738C304.792 50.0453 313.108 52.9135 321.127 55.6829C345.085 63.793 367.656 71.5075 392.604 74.8702L392.406 75.7603Z" fill="#D1EF53" fill-opacity="0.3"/>
<path d="M392.406 94.7499C365.181 90.5959 340.531 79.7165 316.672 69.1338C287.764 56.3752 257.966 43.1221 223.613 42.0341C190.746 41.0451 157.581 45.1002 125.605 48.9574C84.8171 53.9026 42.5447 59.0456 0.470245 53.9026L0.569243 52.9136C42.5447 58.0566 84.7181 52.9136 125.506 47.9684C157.581 44.1111 190.746 40.0561 223.712 41.0451C258.263 42.0341 288.16 55.3861 317.068 68.1447C340.828 78.7274 365.478 89.6069 392.505 93.7608L392.406 94.7499Z" fill="#D1EF53" fill-opacity="0.3"/>
<path d="M392.406 113.64C365.775 108.992 343.6 94.7499 322.216 81.1011C297.07 64.9798 271.133 48.364 238.067 47.5727C199.359 46.6826 161.145 55.485 124.12 64.0897C84.1241 73.3866 42.6437 82.9803 0.470245 80.3099L0.569243 79.3209C42.6437 81.9913 83.9261 72.3976 123.922 63.1995C160.947 54.5949 199.359 45.7925 238.067 46.6826C271.43 47.4738 297.565 64.1886 322.81 80.4088C344.095 94.0575 366.171 108.201 392.604 112.849L392.406 113.64Z" fill="#D1EF53" fill-opacity="0.3"/>
<path d="M392.406 132.63C365.874 127.487 346.471 109.882 327.76 92.8707C306.574 73.6833 284.695 53.8037 252.62 52.9136C219.752 52.0234 185.895 62.8039 153.126 73.1888C145.602 75.5625 138.474 77.8373 131.346 80.0132L124.417 82.0902C84.5201 94.0575 43.1387 106.519 0.569244 106.618V105.629C43.0397 105.53 84.2231 93.1674 124.12 81.2L131.049 79.1231C138.177 76.9472 145.305 74.7713 152.829 72.2987C185.697 61.8149 219.554 51.0344 252.62 51.9245C284.992 52.8146 307.069 72.7932 328.354 92.1784C346.966 109.091 366.27 126.597 392.505 131.641L392.406 132.63Z" fill="#D1EF53" fill-opacity="0.3"/>
<path d="M392.406 151.521C365.379 145.982 348.847 125.212 332.809 105.036C314.593 82.1891 297.367 60.5291 266.183 59.4412C233.414 58.2544 197.379 72.3976 165.6 84.9584C157.878 88.0244 150.552 90.8926 143.424 93.4641C138.078 95.4422 132.732 97.4203 127.387 99.3983C86.6981 114.531 44.6237 130.256 0.569243 132.927L0.470245 131.938C44.4257 129.267 86.4011 113.64 126.991 98.4093C132.336 96.4312 137.682 94.4532 143.028 92.4751C150.156 89.9036 157.482 86.9365 165.204 83.9693C197.082 71.4086 233.216 57.2653 266.183 58.4522C297.862 59.5401 315.979 82.3869 333.601 104.442C349.54 124.421 365.973 145.092 392.604 150.532L392.406 151.521Z" fill="#D1EF53" fill-opacity="0.3"/>
<path d="M392.406 170.51C361.221 164.477 349.144 143.509 335.086 119.278C333.304 116.113 331.423 112.948 329.443 109.684C318.652 91.6838 302.911 70.8151 276.578 69.7272C242.918 68.3425 205.596 85.2551 172.629 100.091C164.709 103.651 157.185 107.113 149.958 110.08C143.028 112.948 135.9 116.014 129.07 118.981C87.9851 136.586 45.5146 154.883 0.569243 159.334L0.470245 158.345C45.3166 153.894 87.6881 135.696 128.674 117.992C135.504 115.025 142.632 112.058 149.562 109.091C156.789 106.025 164.313 102.662 172.233 99.1016C205.299 84.1672 242.72 67.3535 276.578 68.6392C303.406 69.7272 319.345 90.7937 330.235 109.091C332.215 112.355 333.997 115.52 335.878 118.685C349.837 142.718 361.815 163.488 392.505 169.422L392.406 170.51Z" fill="#D1EF53" fill-opacity="0.3"/>
<path d="M392.406 189.5C360.132 184.555 349.639 162.301 337.363 136.685C335.878 133.52 334.294 130.157 332.611 126.894C322.711 106.816 309.049 86.2441 282.517 85.354C247.769 84.2661 209.654 102.86 176.094 119.278C168.273 123.036 160.947 126.696 153.918 129.96C145.899 133.619 137.583 137.575 129.664 141.334C88.5791 160.719 46.0096 180.895 0.668245 185.84L0.569244 184.851C45.8116 179.807 88.1831 159.829 129.268 140.443C137.286 136.685 145.503 132.729 153.522 129.069C160.551 125.806 167.976 122.245 175.698 118.487C209.357 101.97 247.571 83.3759 282.616 84.4639C309.742 85.354 323.602 106.223 333.601 126.498C335.185 129.762 336.769 133.125 338.353 136.289C350.431 161.708 360.825 183.664 392.604 188.61L392.406 189.5Z" fill="#D1EF53" fill-opacity="0.3"/>
<path d="M0.668245 212.149L0.569244 211.16C45.8116 205.423 88.1831 184.851 129.169 165.07C137.187 161.213 145.503 157.158 153.522 153.4C160.65 150.037 168.075 146.378 175.896 142.422C209.456 125.608 247.472 106.618 282.616 107.014C309.742 107.41 323.602 127.685 333.601 147.466C335.185 150.631 336.769 153.795 338.254 156.861C350.431 181.785 360.924 203.247 392.604 207.5L392.505 208.489C360.33 204.236 349.738 182.478 337.363 157.356C335.878 154.29 334.294 151.125 332.71 147.96C322.81 128.377 309.148 108.399 282.616 108.003C282.22 108.003 281.824 108.003 281.329 108.003C246.779 108.003 209.357 126.696 176.292 143.312C168.471 147.268 160.947 150.927 153.819 154.29C145.701 158.048 137.484 162.103 129.466 165.961C88.4801 185.84 46.0096 206.412 0.668245 212.149Z" fill="#D1EF53" fill-opacity="0.3"/>
<path d="M0.668245 238.556L0.569244 237.567C45.5146 230.743 87.7871 211.16 128.575 192.17C135.504 188.906 142.632 185.642 149.661 182.379C157.086 179.016 164.808 175.258 172.926 171.203C205.497 155.279 242.423 137.279 276.677 136.685C276.974 136.685 277.271 136.685 277.469 136.685C304.099 136.685 320.434 156.96 330.334 172.29C332.116 175.06 333.898 177.829 335.68 180.598C350.53 203.94 362.211 222.435 392.604 226.391L392.505 227.38C361.617 223.424 349.144 203.841 334.888 181.192C333.205 178.521 331.423 175.752 329.641 172.884C308.95 140.938 289.546 137.575 276.776 137.773C242.819 138.268 205.992 156.268 173.52 172.192C165.303 176.148 157.68 179.906 150.156 183.368C143.127 186.533 135.999 189.895 129.07 193.159C87.9851 212.05 45.7126 231.732 0.668245 238.556Z" fill="#D1EF53" fill-opacity="0.3"/>
<path d="M0.668245 264.963L0.569244 263.974C44.6237 257.447 86.3021 239.347 126.595 221.742C132.138 219.369 137.682 216.896 143.127 214.522C150.552 211.357 158.175 207.797 166.194 204.137C197.379 189.895 232.82 173.675 266.183 171.796C287.17 170.609 306.277 179.807 324.79 199.885C327.067 202.357 329.146 204.731 331.324 207.006C349.144 226.786 363.3 242.413 392.604 245.281L392.505 246.271C362.706 243.303 348.55 227.578 330.532 207.599C328.453 205.225 326.275 202.852 323.998 200.478C305.782 180.697 286.873 171.598 266.183 172.785C232.919 174.664 197.676 190.785 166.491 205.028C158.472 208.687 150.849 212.149 143.424 215.413C137.88 217.786 132.435 220.16 126.892 222.633C86.5991 240.237 44.8217 258.436 0.668245 264.963Z" fill="#D1EF53" fill-opacity="0.3"/>
<path d="M0.569243 291.371L0.470245 290.382C43.0397 284.942 83.6291 268.919 122.932 253.392C125.605 252.304 128.377 251.216 131.049 250.227C138.474 247.26 145.899 244.292 153.72 241.029C185.895 227.776 219.059 214.028 252.62 210.665C283.012 207.599 305.782 222.633 327.859 237.171C347.263 249.93 367.26 263.183 392.604 264.37V265.359C367.062 264.172 346.867 250.82 327.364 238.062C305.485 223.622 282.814 208.687 252.818 211.753C219.455 215.116 186.291 228.765 154.215 242.018C146.394 245.281 138.969 248.347 131.544 251.216C128.872 252.304 126.1 253.392 123.427 254.381C83.9261 269.81 43.3367 285.931 0.569243 291.371Z" fill="#D1EF53" fill-opacity="0.3"/>
<path d="M0.569243 317.778L0.470245 316.789C43.3367 312.338 84.2231 297.503 123.823 283.162C160.551 269.909 198.567 256.161 237.968 250.622C268.955 246.369 295.882 256.557 321.919 266.447C343.897 274.755 366.567 283.359 391.614 283.359C391.911 283.359 392.208 283.359 392.505 283.359V284.349C366.963 284.546 343.897 275.843 321.622 267.436C295.684 257.645 268.856 247.457 238.166 251.71C198.864 257.15 160.947 270.898 124.219 284.151C84.5201 298.393 43.5347 313.228 0.569243 317.778Z" fill="#D1EF53" fill-opacity="0.3"/>
<path d="M0.569243 344.185L0.470245 343.196C43.5347 339.339 85.4111 326.976 125.902 315.009C157.581 305.613 190.35 295.92 223.613 290.382C251.729 285.733 277.865 285.832 303.604 290.777C309.049 291.865 314.395 292.953 319.543 294.041C343.897 299.085 366.963 303.833 392.406 302.25L392.505 303.239C366.864 304.921 343.798 300.074 319.345 295.03C314.098 293.942 308.752 292.854 303.406 291.766C277.766 286.821 251.729 286.623 223.712 291.371C190.548 296.909 157.779 306.602 126.1 315.899C85.7081 327.965 43.7327 340.328 0.569243 344.185Z" fill="#D1EF53" fill-opacity="0.3"/>
<path d="M0.569243 370.593L0.470245 369.604C45.5146 365.351 90.064 354.966 133.128 344.977C158.472 339.042 184.806 333.009 210.842 328.163C244.205 322.031 270.539 319.657 296.179 320.448C304.396 320.745 312.613 321.141 320.533 321.536C343.897 322.723 368.151 324.009 392.307 321.141L392.406 322.13C368.151 324.899 343.897 323.712 320.434 322.525C312.514 322.13 304.198 321.734 296.08 321.437C270.539 320.646 244.205 323.02 210.941 329.053C184.806 333.8 158.571 339.932 133.227 345.768C90.262 355.955 45.6136 366.241 0.569243 370.593Z" fill="#D1EF53" fill-opacity="0.3"/>
<path d="M373.695 343.592H372.705C374.982 243.303 374.982 148.554 372.705 53.8037H373.695C376.071 148.455 376.071 243.303 373.695 343.592Z" fill="#D1EF53" fill-opacity="0.3"/>
<path d="M354.687 345.471L353.698 345.372C354.588 331.031 355.579 316.591 356.568 302.547C359.241 264.963 362.013 226.094 362.112 187.621C362.211 153.598 359.34 119.476 356.568 86.442C355.579 74.4746 354.588 62.1116 353.698 49.9464L354.687 49.8475C355.578 62.1116 356.568 74.4746 357.558 86.3431C360.33 119.377 363.102 153.499 363.102 187.621C363.003 226.193 360.231 265.062 357.558 302.646C356.568 316.69 355.578 331.13 354.687 345.471Z" fill="#D1EF53" fill-opacity="0.3"/>
<path d="M335.482 346.658L334.492 346.559C336.373 328.756 338.848 310.657 341.224 293.151C346.471 254.677 351.916 214.819 351.916 175.159C351.916 144.301 346.471 114.135 341.224 84.9584C338.848 72.002 336.472 58.65 334.492 45.199L335.482 45.1001C337.462 58.4522 339.838 71.9031 342.214 84.7606C347.461 113.937 352.906 144.103 352.906 175.06C352.906 214.72 347.461 254.578 342.214 293.151C339.838 310.756 337.363 328.855 335.482 346.658Z" fill="#D1EF53" fill-opacity="0.3"/>
<path d="M315.682 347.746L314.692 347.548C317.86 327.372 322.117 306.701 326.176 286.722C334.69 245.183 343.501 202.258 343.402 159.73C343.402 132.136 335.482 108.3 327.166 82.9803C322.612 69.2327 317.959 54.9905 314.692 40.155L315.682 39.9572C318.949 54.6938 323.602 68.936 328.156 82.6836C336.472 108.003 344.392 131.938 344.392 159.73C344.491 202.357 335.68 245.38 327.166 286.92C323.107 306.899 318.85 327.471 315.682 347.746Z" fill="#D1EF53" fill-opacity="0.3"/>
<path d="M294.892 349.032L293.902 348.834C298.357 326.482 304.792 303.14 310.93 280.59C323.404 235.094 336.274 188.115 335.68 142.224C335.383 115.717 324.394 95.9367 312.712 74.8702C305.782 62.4083 298.654 49.6497 293.902 35.1109L294.793 34.8141C299.644 49.1552 306.673 62.0127 313.603 74.3757C325.285 95.4422 336.373 115.421 336.67 142.125C337.264 188.115 324.295 235.193 311.821 280.689C305.782 303.338 299.347 326.679 294.892 349.032Z" fill="#D1EF53" fill-opacity="0.3"/>
<path d="M272.618 351.01L271.628 350.812C278.954 319.756 288.061 288.601 296.872 258.535C299.941 247.952 303.109 237.073 306.277 226.292C307.564 221.841 308.851 217.292 310.237 212.643C318.751 183.862 327.463 153.993 327.067 124.817C326.671 97.8159 312.613 82.3869 297.664 65.9689C288.16 55.584 278.261 44.8034 271.727 30.5613L272.618 30.1657C279.053 44.21 288.853 54.9905 298.357 65.2765C313.405 81.7935 327.661 97.3214 328.057 124.718C328.453 153.993 319.642 183.862 311.227 212.742C309.841 217.292 308.554 221.841 307.267 226.391C304.198 237.171 301.03 248.051 297.862 258.634C289.051 288.799 279.944 319.954 272.618 351.01Z" fill="#D1EF53" fill-opacity="0.3"/>
<path d="M248.66 354.076L247.67 353.779C256.679 319.163 267.965 284.744 278.953 251.414C283.903 236.38 289.051 220.852 293.902 205.522C295.585 200.379 297.268 195.137 299.149 189.599C307.663 164.081 317.266 135.103 316.177 108.794C315.088 81.3979 298.258 69.925 280.438 57.7598C268.262 49.4519 255.689 40.9462 247.769 26.8029L248.66 26.3084C256.481 40.155 268.955 48.6607 281.032 56.9686C299.05 69.2327 316.078 80.9033 317.266 108.794C318.355 135.202 308.653 164.279 300.139 189.895C298.258 195.434 296.575 200.676 294.892 205.819C290.041 221.149 284.893 236.677 279.943 251.71C268.955 285.14 257.57 319.558 248.66 354.076Z" fill="#D1EF53" fill-opacity="0.3"/>
<path d="M222.425 358.625L221.435 358.329C231.731 319.954 245.294 281.975 258.362 245.281C263.609 230.545 269.054 215.413 274.202 200.379C275.984 195.335 277.766 190.192 279.647 184.752C289.348 157.554 300.337 126.597 299.842 98.0137C299.347 69.1338 280.043 60.6281 259.748 51.6278C245.195 45.1991 230.147 38.5725 221.534 24.1325L222.425 23.638C230.939 37.8802 245.789 44.4078 260.144 50.7377C280.834 59.8368 300.337 68.5404 300.832 98.0137C301.327 126.795 290.338 157.752 280.637 185.148C278.756 190.588 276.875 195.632 275.192 200.775C270.044 215.808 264.599 231.039 259.352 245.776C246.284 282.272 232.721 320.251 222.425 358.625Z" fill="#D1EF53" fill-opacity="0.3"/>
<path d="M194.409 364.065L193.419 363.867C203.913 323.02 218.663 282.766 232.82 243.897C237.374 231.534 242.027 218.775 246.482 206.214C248.363 200.775 250.442 195.335 252.521 189.599C263.312 160.224 275.588 126.993 274.994 96.0356C274.4 66.0678 254.798 58.65 234.008 50.7377C218.267 44.8034 201.933 38.6714 193.518 22.1545L194.409 21.6599C202.725 37.8802 218.861 43.9133 234.404 49.8475C255.491 57.8587 275.39 65.3754 276.083 96.0356C276.677 127.19 264.401 160.521 253.511 189.994C251.432 195.731 249.353 201.17 247.472 206.61C243.017 219.27 238.364 232.028 233.81 244.391C219.653 283.063 205.002 323.218 194.409 364.065Z" fill="#D1EF53" fill-opacity="0.3"/>
<path d="M165.6 369.208L164.61 369.01C174.114 327.866 187.974 287.316 201.438 248.15C205.2 237.27 209.06 225.995 212.723 214.918C214.703 209.083 216.782 203.148 218.96 196.819C229.157 167.642 240.839 134.608 240.047 104.344C239.354 76.2549 221.237 65.771 201.933 54.5949C186.984 45.9903 171.54 37.0889 164.511 19.1873L165.402 18.7917C172.233 36.3966 187.578 45.1991 202.329 53.7048C220.94 64.4853 240.245 75.5625 240.938 104.245C241.631 134.806 230.048 167.939 219.752 197.115C217.574 203.346 215.495 209.281 213.515 215.215C209.852 226.292 205.991 237.567 202.23 248.446C188.964 287.612 175.104 328.163 165.6 369.208Z" fill="#D1EF53" fill-opacity="0.3"/>
<path d="M134.91 375.142L133.92 374.944C141.246 334.987 153.225 295.525 164.709 257.348C167.184 249.337 169.56 241.325 171.936 233.314C173.817 226.984 175.797 220.654 177.876 214.028C187.182 184.653 197.577 151.422 196.686 121.157C195.894 94.8488 180.846 79.5187 164.808 63.2985C151.938 50.1442 138.573 36.5944 133.821 16.8137L134.811 16.6158C139.464 36.0999 152.73 49.6497 165.6 62.6061C181.044 78.2329 196.983 94.4532 197.775 121.058C198.666 151.521 188.172 184.851 178.866 214.325C176.787 221.05 174.708 227.38 172.926 233.611C170.55 241.622 168.075 249.633 165.699 257.644C154.215 295.821 142.236 335.284 134.91 375.142Z" fill="#D1EF53" fill-opacity="0.3"/>
<path d="M103.033 381.175L102.043 381.076C105.904 347.845 114.814 314.119 123.427 281.579C135.306 236.677 147.483 190.291 146.988 144.202C146.691 117.3 135.207 94.4532 124.12 72.3976C115.012 54.1993 105.508 35.4076 102.043 14.2422L103.033 14.0443C106.399 35.1109 115.903 53.8037 125.011 72.002C136.197 94.1564 147.681 117.201 147.978 144.301C148.473 190.588 136.197 237.072 124.417 281.975C115.804 314.316 106.894 348.043 103.033 381.175Z" fill="#D1EF53" fill-opacity="0.3"/>
<path d="M70.1653 386.714H69.1753C70.5613 352.79 76.2042 318.767 81.5502 285.832C87.7871 247.655 94.321 208.193 94.321 168.829C94.321 140.147 87.8861 112.256 81.6492 85.2551C76.1052 61.1226 70.3633 36.1988 69.1753 10.6816H70.1653C71.3533 36.0999 77.0952 61.0237 82.6391 85.0573C88.8761 112.058 95.311 140.048 95.311 168.829C95.311 208.291 88.8761 247.853 82.5401 286.03C77.0952 318.767 71.5513 352.79 70.1653 386.714Z" fill="#D1EF53" fill-opacity="0.3"/>
<path d="M35.3178 391.659C34.8228 356.252 37.0997 320.448 39.1787 285.733C41.1587 254.183 43.1387 221.545 43.1387 189.401C43.1387 160.224 41.1587 130.652 39.1787 102.069C37.0007 70.6173 34.8228 37.9791 35.3178 5.83533H36.3078C35.9118 37.9791 38.0897 70.5184 40.1687 101.97C42.1487 130.553 44.1287 160.125 44.1287 189.401C44.1287 221.545 42.1487 254.183 40.1687 285.733C37.9907 320.35 35.8128 356.252 36.3078 391.56L35.3178 391.659Z" fill="#D1EF53" fill-opacity="0.3"/>
</svg>
